<svg width="500" height="500" viewBox="0 0 500 500" fill="none" xmlns="http://www.w3.org/2000/svg">
  <mask id="funnel-cutout">
    <rect x="0" y="0" width="500" height="500" fill="white" />
    <rect x="120" y="145" width="260" height="12" fill="black" />
  </mask>
  
  <g transform="translate(45, 15)">
    <circle cx="185" cy="180" r="120" stroke="#2563EB" stroke-width="32"/>
    
    <path d="M275 270L345 340" stroke="#2563EB" stroke-width="32" stroke-linecap="round"/>
    
    <g mask="url(#funnel-cutout)">
      <path d="M115 120H255L195 205V255L170 240V205L115 120Z" 
            fill="#3B82F6" 
            stroke="#3B82F6" 
            stroke-width="10" 
            stroke-linejoin="round" 
            stroke-linecap="round"/>
    </g>
    
    <path d="M320 30L330 50L350 60L330 70L320 90L310 70L290 60L310 50L320 30Z" fill="#3B82F6"/>
    <path d="M370 85L376 97L388 103L376 109L370 121L364 109L352 103L364 97L370 85Z" fill="#3B82F6"/>
  </g>
  
  <text x="250" y="440" 
        text-anchor="middle" 
        font-family="-apple-system, BlinkMacSystemFont, 'Segoe UI', Roboto, Oxygen, Ubuntu, Cantarell, 'Fira Sans', 'Droid Sans', 'Helvetica Neue', sans-serif" 
        font-weight="700" 
        font-size="68px">
    <tspan fill="#3B82F6">Deals</tspan><tspan fill="#1D4ED8">Scraper</tspan>
  </text>
</svg>
